<?xml version="1.0" standalone="no"?>
<!DOCTYPE svg PUBLIC "-//W3C//DTD SVG 20010904//EN"
 "http://www.w3.org/TR/2001/REC-SVG-20010904/DTD/svg10.dtd">
<svg version="1.0" xmlns="http://www.w3.org/2000/svg"
 width="94.000000pt" height="94.000000pt" viewBox="0 0 94.000000 94.000000"
 preserveAspectRatio="xMidYMid meet">
<metadata>
Created by potrace 1.14, written by Peter Selinger 2001-2017
</metadata>
<g transform="translate(0.000000,94.000000) scale(0.100000,-0.100000)"
fill="#000000" stroke="none">
<path d="M540 784 l50 -47 -42 -30 c-125 -89 -221 -167 -205 -167 5 0 70 32
146 70 76 39 142 70 147 70 4 0 29 -19 54 -42 39 -38 41 -38 11 -6 -36 39 -37
58 -3 37 37 -23 43 -48 28 -119 -14 -63 -13 -66 7 -88 l22 -24 12 29 c7 15 12
39 13 53 0 23 1 23 43 -15 l42 -40 -39 42 c-33 36 -38 46 -32 74 9 45 -12 106
-47 135 -23 20 -39 24 -91 24 -60 0 -63 1 -106 45 -24 25 -48 45 -52 45 -4 0
15 -21 42 -46z"/>
<path d="M256 726 c-17 -8 -36 -29 -47 -52 -40 -85 -23 -129 129 -317 30 -37
57 -66 59 -63 2 2 -28 65 -67 140 -38 75 -70 148 -70 161 0 14 12 39 28 56 25
29 30 31 77 25 28 -3 59 -8 70 -11 21 -6 74 29 63 41 -12 11 -124 33 -168 33
-25 0 -58 -6 -74 -13z"/>
<path d="M590 593 c0 -6 31 -72 69 -148 59 -116 69 -143 64 -174 -3 -20 -12
-42 -21 -48 -19 -15 -100 -17 -137 -3 -21 8 -31 6 -50 -8 -33 -23 -26 -35 23
-46 23 -5 42 -12 42 -17 0 -13 113 -4 145 11 68 33 83 146 32 226 -35 55 -167
218 -167 207z"/>
<path d="M451 476 c-20 -23 -5 -65 24 -72 35 -9 57 12 53 50 -3 27 -7 31 -34
34 -19 2 -36 -3 -43 -12z"/>
<path d="M228 444 c-4 -5 -9 -27 -13 -49 -4 -22 -10 -44 -12 -48 -3 -5 -28 13
-56 40 l-51 48 53 -58 c47 -51 52 -61 46 -88 -17 -75 56 -149 147 -149 35 0
49 -6 83 -38 l40 -37 -39 42 -38 41 23 12 c38 20 230 172 224 178 -3 3 -63
-25 -135 -61 -71 -37 -140 -67 -153 -67 -13 0 -38 15 -60 38 l-36 37 13 58
c13 56 13 60 -9 84 -12 15 -24 22 -27 17z m67 -214 c16 -18 16 -20 2 -20 -9 0
-21 9 -27 20 -6 11 -7 20 -2 20 5 0 17 -9 27 -20z"/>
</g>
</svg>
